<mxfile host="app.diagrams.net" modified="2024-03-30T17:05:13.227Z" agent="Mozilla/5.0 (Macintosh; Intel Mac OS X 10.15; rv:124.0) Gecko/20100101 Firefox/124.0" version="24.2.1" etag="akwUm3c9rZUpBZNcJc-O" type="github">
  <diagram name="Page-1" id="CgqnYVZKySDO6VGLASpk">
    <mxGraphModel>
      <root>
        <mxCell id="0" />
        <mxCell id="1" parent="0" />
      </root>
    </mxGraphModel>
  </diagram>
</mxfile>
